<svg width="114" height="19" viewBox="0 0 114 19" fill="none" xmlns="http://www.w3.org/2000/svg">
<path d="M10 0.453125C10.4167 0.453125 10.75 0.536458 11 0.703125C11.2604 0.859375 11.4531 1.11458 11.5781 1.46875L17.0938 16.875H18.0469C18.401 16.875 18.651 16.9583 18.7969 17.125C18.9531 17.2812 19.0312 17.5521 19.0312 17.9375C19.0312 18.3229 18.9531 18.599 18.7969 18.7656C18.651 18.9219 18.401 19 18.0469 19H12.5156C12.1615 19 11.9062 18.9219 11.75 18.7656C11.6042 18.599 11.5312 18.3229 11.5312 17.9375C11.5312 17.5521 11.6042 17.2812 11.75 17.125C11.9062 16.9583 12.1615 16.875 12.5156 16.875H14.625L13.3438 13.1562H5.76562L4.46875 16.875H6.35938C6.71354 16.875 6.96354 16.9583 7.10938 17.125C7.26562 17.2812 7.34375 17.5521 7.34375 17.9375C7.34375 18.3229 7.26562 18.599 7.10938 18.7656C6.96354 18.9219 6.71354 19 6.35938 19H1.14062C0.786458 19 0.53125 18.9219 0.375 18.7656C0.229167 18.599 0.15625 18.3229 0.15625 17.9375C0.15625 17.5521 0.229167 17.2812 0.375 17.125C0.53125 16.9583 0.786458 16.875 1.14062 16.875H2.01562L7.1875 2.57812H4.26562C3.91146 2.57812 3.65625 2.5 3.5 2.34375C3.35417 2.17708 3.28125 1.90104 3.28125 1.51562C3.28125 1.13021 3.35417 0.859375 3.5 0.703125C3.65625 0.536458 3.91146 0.453125 4.26562 0.453125H10ZM9.42188 2.57812L6.5 11.0312H12.625L9.71875 2.57812H9.42188ZM30.0781 0.453125C30.4323 0.453125 30.6823 0.536458 30.8281 0.703125C30.9844 0.859375 31.0625 1.13021 31.0625 1.51562C31.0625 1.90104 30.9844 2.17708 30.8281 2.34375C30.6823 2.5 30.4323 2.57812 30.0781 2.57812H26.2969V16.875H34.0312V11.7344C34.0312 11.3698 34.1198 11.1094 34.2969 10.9531C34.474 10.7969 34.776 10.7188 35.2031 10.7188C35.6302 10.7188 35.9323 10.7969 36.1094 10.9531C36.2865 11.1094 36.375 11.3698 36.375 11.7344V17.9375C36.375 18.3229 36.2969 18.599 36.1406 18.7656C35.9948 18.9219 35.7448 19 35.3906 19H21.4219C21.0677 19 20.8125 18.9219 20.6562 18.7656C20.5104 18.599 20.4375 18.3229 20.4375 17.9375C20.4375 17.5521 20.5104 17.2812 20.6562 17.125C20.8125 16.9583 21.0677 16.875 21.4219 16.875H23.9531V2.57812H21.4219C21.0677 2.57812 20.8125 2.5 20.6562 2.34375C20.5104 2.17708 20.4375 1.90104 20.4375 1.51562C20.4375 1.13021 20.5104 0.859375 20.6562 0.703125C20.8125 0.536458 21.0677 0.453125 21.4219 0.453125H30.0781ZM48.4375 0.453125C49.6562 0.453125 50.6927 0.661458 51.5469 1.07812C52.401 1.49479 53.0417 2.08333 53.4688 2.84375C53.9062 3.59375 54.125 4.47396 54.125 5.48438C54.125 6.27604 53.9427 6.97917 53.5781 7.59375C53.224 8.19792 52.7135 8.69271 52.0469 9.07812C53.151 9.43229 53.9948 10.0052 54.5781 10.7969C55.1719 11.5781 55.4688 12.5469 55.4688 13.7031C55.4688 14.7969 55.2344 15.7396 54.7656 16.5312C54.2969 17.3229 53.6146 17.9323 52.7188 18.3594C51.8229 18.7865 50.7396 19 49.4688 19H40.6094C40.2552 19 40 18.9219 39.8438 18.7656C39.6979 18.599 39.625 18.3229 39.625 17.9375C39.625 17.5521 39.6979 17.2812 39.8438 17.125C40 16.9583 40.2552 16.875 40.6094 16.875H42.5156V2.57812H40.6094C40.2552 2.57812 40 2.5 39.8438 2.34375C39.6979 2.17708 39.625 1.90104 39.625 1.51562C39.625 1.13021 39.6979 0.859375 39.8438 0.703125C40 0.536458 40.2552 0.453125 40.6094 0.453125H48.4375ZM44.8594 8.35938H48.0938C49.2917 8.35938 50.1979 8.10938 50.8125 7.60938C51.4271 7.10938 51.7344 6.40104 51.7344 5.48438C51.7344 4.52604 51.4323 3.80208 50.8281 3.3125C50.224 2.82292 49.3125 2.57812 48.0938 2.57812H44.8594V8.35938ZM44.8594 16.875H49C50.2812 16.875 51.2656 16.599 51.9531 16.0469C52.651 15.4948 53 14.7135 53 13.7031C53 11.5573 51.6927 10.4844 49.0781 10.4844H44.8594V16.875ZM73.5781 12.2812C74.0052 12.2812 74.3073 12.3594 74.4844 12.5156C74.6615 12.6719 74.75 12.9323 74.75 13.2969V17.9375C74.75 18.3229 74.6719 18.599 74.5156 18.7656C74.3698 18.9219 74.1198 19 73.7656 19H59.7969C59.4427 19 59.1875 18.9219 59.0312 18.7656C58.8854 18.599 58.8125 18.3229 58.8125 17.9375C58.8125 17.5521 58.8854 17.2812 59.0312 17.125C59.1875 16.9583 59.4427 16.875 59.7969 16.875H61.3906V2.57812H59.7969C59.4427 2.57812 59.1875 2.5 59.0312 2.34375C58.8854 2.17708 58.8125 1.90104 58.8125 1.51562C58.8125 1.13021 58.8854 0.859375 59.0312 0.703125C59.1875 0.536458 59.4427 0.453125 59.7969 0.453125H73.4531C73.8073 0.453125 74.0573 0.536458 74.2031 0.703125C74.3594 0.859375 74.4375 1.13021 74.4375 1.51562V5.48438C74.4375 5.84896 74.349 6.10938 74.1719 6.26562C73.9948 6.42188 73.6927 6.5 73.2656 6.5C72.8385 6.5 72.5365 6.42188 72.3594 6.26562C72.1823 6.10938 72.0938 5.84896 72.0938 5.48438V2.57812H63.7344V8.375H67.7656V6.95312C67.7656 6.58854 67.8438 6.32812 68 6.17188C68.1667 6.01562 68.4583 5.9375 68.875 5.9375C69.2917 5.9375 69.5781 6.01562 69.7344 6.17188C69.901 6.32812 69.9844 6.58854 69.9844 6.95312V11.9219C69.9844 12.2865 69.901 12.5469 69.7344 12.7031C69.5781 12.8594 69.2917 12.9375 68.875 12.9375C68.4583 12.9375 68.1667 12.8594 68 12.7031C67.8438 12.5469 67.7656 12.2865 67.7656 11.9219V10.5H63.7344V16.875H72.4062V13.2969C72.4062 12.9323 72.4948 12.6719 72.6719 12.5156C72.849 12.3594 73.151 12.2812 73.5781 12.2812ZM86.8906 0.453125C88.1927 0.453125 89.3073 0.671875 90.2344 1.10938C91.1719 1.54688 91.8802 2.16146 92.3594 2.95312C92.849 3.74479 93.0938 4.66667 93.0938 5.71875C93.0938 6.90625 92.7083 7.91146 91.9375 8.73438C91.1667 9.55729 90.1094 10.1198 88.7656 10.4219C89.349 10.651 89.8333 11.0208 90.2188 11.5312C90.5417 11.9583 90.8177 12.3854 91.0469 12.8125C91.276 13.2292 91.5312 13.7448 91.8125 14.3594C92.1042 14.9948 92.3281 15.4583 92.4844 15.75C92.8906 16.5 93.3594 16.875 93.8906 16.875H94.3281C94.6823 16.875 94.9323 16.9583 95.0781 17.125C95.2344 17.2812 95.3125 17.5521 95.3125 17.9375C95.3125 18.3229 95.2344 18.599 95.0781 18.7656C94.9323 18.9219 94.6823 19 94.3281 19H93.2031C92.5781 19 92.0469 18.8385 91.6094 18.5156C91.1823 18.1823 90.7656 17.6198 90.3594 16.8281C90.1302 16.3698 89.849 15.7656 89.5156 15.0156C89.2031 14.3281 88.9479 13.7969 88.75 13.4219C88.5625 13.0365 88.3333 12.6562 88.0625 12.2812C87.75 11.8438 87.375 11.5156 86.9375 11.2969C86.5 11.0677 85.974 10.9531 85.3594 10.9531H83.2344V16.875H85.2656C85.6198 16.875 85.8698 16.9583 86.0156 17.125C86.1719 17.2812 86.25 17.5521 86.25 17.9375C86.25 18.3229 86.1719 18.599 86.0156 18.7656C85.8698 18.9219 85.6198 19 85.2656 19H78.9844C78.6302 19 78.375 18.9219 78.2188 18.7656C78.0729 18.599 78 18.3229 78 17.9375C78 17.5521 78.0729 17.2812 78.2188 17.125C78.375 16.9583 78.6302 16.875 78.9844 16.875H80.8906V2.57812H78.9844C78.6302 2.57812 78.375 2.5 78.2188 2.34375C78.0729 2.17708 78 1.90104 78 1.51562C78 1.13021 78.0729 0.859375 78.2188 0.703125C78.375 0.536458 78.6302 0.453125 78.9844 0.453125H86.8906ZM83.2344 8.82812H86.4062C89.2188 8.82812 90.625 7.79167 90.625 5.71875C90.625 4.71875 90.2708 3.94792 89.5625 3.40625C88.8542 2.85417 87.8542 2.57812 86.5625 2.57812H83.2344V8.82812ZM112.234 0.453125C112.589 0.453125 112.839 0.536458 112.984 0.703125C113.141 0.859375 113.219 1.13021 113.219 1.51562V7.40625C113.219 7.77083 113.13 8.03125 112.953 8.1875C112.776 8.34375 112.474 8.42188 112.047 8.42188C111.62 8.42188 111.318 8.34375 111.141 8.1875C110.964 8.03125 110.875 7.77083 110.875 7.40625V2.57812H106.703V16.875H110.391C110.745 16.875 110.995 16.9583 111.141 17.125C111.297 17.2812 111.375 17.5521 111.375 17.9375C111.375 18.3229 111.297 18.599 111.141 18.7656C110.995 18.9219 110.745 19 110.391 19H100.672C100.318 19 100.062 18.9219 99.9062 18.7656C99.7604 18.599 99.6875 18.3229 99.6875 17.9375C99.6875 17.5521 99.7604 17.2812 99.9062 17.125C100.062 16.9583 100.318 16.875 100.672 16.875H104.359V2.57812H100.188V7.40625C100.188 7.77083 100.099 8.03125 99.9219 8.1875C99.7448 8.34375 99.4427 8.42188 99.0156 8.42188C98.5885 8.42188 98.2865 8.34375 98.1094 8.1875C97.9323 8.03125 97.8438 7.77083 97.8438 7.40625V1.51562C97.8438 1.13021 97.9167 0.859375 98.0625 0.703125C98.2188 0.536458 98.474 0.453125 98.8281 0.453125H112.234Z" fill="#69358F"/>
<path d="M10 0.453125C10.4167 0.453125 10.75 0.536458 11 0.703125C11.2604 0.859375 11.4531 1.11458 11.5781 1.46875L17.0938 16.875H18.0469C18.401 16.875 18.651 16.9583 18.7969 17.125C18.9531 17.2812 19.0312 17.5521 19.0312 17.9375C19.0312 18.3229 18.9531 18.599 18.7969 18.7656C18.651 18.9219 18.401 19 18.0469 19H12.5156C12.1615 19 11.9062 18.9219 11.75 18.7656C11.6042 18.599 11.5312 18.3229 11.5312 17.9375C11.5312 17.5521 11.6042 17.2812 11.75 17.125C11.9062 16.9583 12.1615 16.875 12.5156 16.875H14.625L13.3438 13.1562H5.76562L4.46875 16.875H6.35938C6.71354 16.875 6.96354 16.9583 7.10938 17.125C7.26562 17.2812 7.34375 17.5521 7.34375 17.9375C7.34375 18.3229 7.26562 18.599 7.10938 18.7656C6.96354 18.9219 6.71354 19 6.35938 19H1.14062C0.786458 19 0.53125 18.9219 0.375 18.7656C0.229167 18.599 0.15625 18.3229 0.15625 17.9375C0.15625 17.5521 0.229167 17.2812 0.375 17.125C0.53125 16.9583 0.786458 16.875 1.14062 16.875H2.01562L7.1875 2.57812H4.26562C3.91146 2.57812 3.65625 2.5 3.5 2.34375C3.35417 2.17708 3.28125 1.90104 3.28125 1.51562C3.28125 1.13021 3.35417 0.859375 3.5 0.703125C3.65625 0.536458 3.91146 0.453125 4.26562 0.453125H10ZM9.42188 2.57812L6.5 11.0312H12.625L9.71875 2.57812H9.42188ZM30.0781 0.453125C30.4323 0.453125 30.6823 0.536458 30.8281 0.703125C30.9844 0.859375 31.0625 1.13021 31.0625 1.51562C31.0625 1.90104 30.9844 2.17708 30.8281 2.34375C30.6823 2.5 30.4323 2.57812 30.0781 2.57812H26.2969V16.875H34.0312V11.7344C34.0312 11.3698 34.1198 11.1094 34.2969 10.9531C34.474 10.7969 34.776 10.7188 35.2031 10.7188C35.6302 10.7188 35.9323 10.7969 36.1094 10.9531C36.2865 11.1094 36.375 11.3698 36.375 11.7344V17.9375C36.375 18.3229 36.2969 18.599 36.1406 18.7656C35.9948 18.9219 35.7448 19 35.3906 19H21.4219C21.0677 19 20.8125 18.9219 20.6562 18.7656C20.5104 18.599 20.4375 18.3229 20.4375 17.9375C20.4375 17.5521 20.5104 17.2812 20.6562 17.125C20.8125 16.9583 21.0677 16.875 21.4219 16.875H23.9531V2.57812H21.4219C21.0677 2.57812 20.8125 2.5 20.6562 2.34375C20.5104 2.17708 20.4375 1.90104 20.4375 1.51562C20.4375 1.13021 20.5104 0.859375 20.6562 0.703125C20.8125 0.536458 21.0677 0.453125 21.4219 0.453125H30.0781ZM48.4375 0.453125C49.6562 0.453125 50.6927 0.661458 51.5469 1.07812C52.401 1.49479 53.0417 2.08333 53.4688 2.84375C53.9062 3.59375 54.125 4.47396 54.125 5.48438C54.125 6.27604 53.9427 6.97917 53.5781 7.59375C53.224 8.19792 52.7135 8.69271 52.0469 9.07812C53.151 9.43229 53.9948 10.0052 54.5781 10.7969C55.1719 11.5781 55.4688 12.5469 55.4688 13.7031C55.4688 14.7969 55.2344 15.7396 54.7656 16.5312C54.2969 17.3229 53.6146 17.9323 52.7188 18.3594C51.8229 18.7865 50.7396 19 49.4688 19H40.6094C40.2552 19 40 18.9219 39.8438 18.7656C39.6979 18.599 39.625 18.3229 39.625 17.9375C39.625 17.5521 39.6979 17.2812 39.8438 17.125C40 16.9583 40.2552 16.875 40.6094 16.875H42.5156V2.57812H40.6094C40.2552 2.57812 40 2.5 39.8438 2.34375C39.6979 2.17708 39.625 1.90104 39.625 1.51562C39.625 1.13021 39.6979 0.859375 39.8438 0.703125C40 0.536458 40.2552 0.453125 40.6094 0.453125H48.4375ZM44.8594 8.35938H48.0938C49.2917 8.35938 50.1979 8.10938 50.8125 7.60938C51.4271 7.10938 51.7344 6.40104 51.7344 5.48438C51.7344 4.52604 51.4323 3.80208 50.8281 3.3125C50.224 2.82292 49.3125 2.57812 48.0938 2.57812H44.8594V8.35938ZM44.8594 16.875H49C50.2812 16.875 51.2656 16.599 51.9531 16.0469C52.651 15.4948 53 14.7135 53 13.7031C53 11.5573 51.6927 10.4844 49.0781 10.4844H44.8594V16.875ZM73.5781 12.2812C74.0052 12.2812 74.3073 12.3594 74.4844 12.5156C74.6615 12.6719 74.75 12.9323 74.75 13.2969V17.9375C74.75 18.3229 74.6719 18.599 74.5156 18.7656C74.3698 18.9219 74.1198 19 73.7656 19H59.7969C59.4427 19 59.1875 18.9219 59.0312 18.7656C58.8854 18.599 58.8125 18.3229 58.8125 17.9375C58.8125 17.5521 58.8854 17.2812 59.0312 17.125C59.1875 16.9583 59.4427 16.875 59.7969 16.875H61.3906V2.57812H59.7969C59.4427 2.57812 59.1875 2.5 59.0312 2.34375C58.8854 2.17708 58.8125 1.90104 58.8125 1.51562C58.8125 1.13021 58.8854 0.859375 59.0312 0.703125C59.1875 0.536458 59.4427 0.453125 59.7969 0.453125H73.4531C73.8073 0.453125 74.0573 0.536458 74.2031 0.703125C74.3594 0.859375 74.4375 1.13021 74.4375 1.51562V5.48438C74.4375 5.84896 74.349 6.10938 74.1719 6.26562C73.9948 6.42188 73.6927 6.5 73.2656 6.5C72.8385 6.5 72.5365 6.42188 72.3594 6.26562C72.1823 6.10938 72.0938 5.84896 72.0938 5.48438V2.57812H63.7344V8.375H67.7656V6.95312C67.7656 6.58854 67.8438 6.32812 68 6.17188C68.1667 6.01562 68.4583 5.9375 68.875 5.9375C69.2917 5.9375 69.5781 6.01562 69.7344 6.17188C69.901 6.32812 69.9844 6.58854 69.9844 6.95312V11.9219C69.9844 12.2865 69.901 12.5469 69.7344 12.7031C69.5781 12.8594 69.2917 12.9375 68.875 12.9375C68.4583 12.9375 68.1667 12.8594 68 12.7031C67.8438 12.5469 67.7656 12.2865 67.7656 11.9219V10.5H63.7344V16.875H72.4062V13.2969C72.4062 12.9323 72.4948 12.6719 72.6719 12.5156C72.849 12.3594 73.151 12.2812 73.5781 12.2812ZM86.8906 0.453125C88.1927 0.453125 89.3073 0.671875 90.2344 1.10938C91.1719 1.54688 91.8802 2.16146 92.3594 2.95312C92.849 3.74479 93.0938 4.66667 93.0938 5.71875C93.0938 6.90625 92.7083 7.91146 91.9375 8.73438C91.1667 9.55729 90.1094 10.1198 88.7656 10.4219C89.349 10.651 89.8333 11.0208 90.2188 11.5312C90.5417 11.9583 90.8177 12.3854 91.0469 12.8125C91.276 13.2292 91.5312 13.7448 91.8125 14.3594C92.1042 14.9948 92.3281 15.4583 92.4844 15.75C92.8906 16.5 93.3594 16.875 93.8906 16.875H94.3281C94.6823 16.875 94.9323 16.9583 95.0781 17.125C95.2344 17.2812 95.3125 17.5521 95.3125 17.9375C95.3125 18.3229 95.2344 18.599 95.0781 18.7656C94.9323 18.9219 94.6823 19 94.3281 19H93.2031C92.5781 19 92.0469 18.8385 91.6094 18.5156C91.1823 18.1823 90.7656 17.6198 90.3594 16.8281C90.1302 16.3698 89.849 15.7656 89.5156 15.0156C89.2031 14.3281 88.9479 13.7969 88.75 13.4219C88.5625 13.0365 88.3333 12.6562 88.0625 12.2812C87.75 11.8438 87.375 11.5156 86.9375 11.2969C86.5 11.0677 85.974 10.9531 85.3594 10.9531H83.2344V16.875H85.2656C85.6198 16.875 85.8698 16.9583 86.0156 17.125C86.1719 17.2812 86.25 17.5521 86.25 17.9375C86.25 18.3229 86.1719 18.599 86.0156 18.7656C85.8698 18.9219 85.6198 19 85.2656 19H78.9844C78.6302 19 78.375 18.9219 78.2188 18.7656C78.0729 18.599 78 18.3229 78 17.9375C78 17.5521 78.0729 17.2812 78.2188 17.125C78.375 16.9583 78.6302 16.875 78.9844 16.875H80.8906V2.57812H78.9844C78.6302 2.57812 78.375 2.5 78.2188 2.34375C78.0729 2.17708 78 1.90104 78 1.51562C78 1.13021 78.0729 0.859375 78.2188 0.703125C78.375 0.536458 78.6302 0.453125 78.9844 0.453125H86.8906ZM83.2344 8.82812H86.4062C89.2188 8.82812 90.625 7.79167 90.625 5.71875C90.625 4.71875 90.2708 3.94792 89.5625 3.40625C88.8542 2.85417 87.8542 2.57812 86.5625 2.57812H83.2344V8.82812ZM112.234 0.453125C112.589 0.453125 112.839 0.536458 112.984 0.703125C113.141 0.859375 113.219 1.13021 113.219 1.51562V7.40625C113.219 7.77083 113.13 8.03125 112.953 8.1875C112.776 8.34375 112.474 8.42188 112.047 8.42188C111.62 8.42188 111.318 8.34375 111.141 8.1875C110.964 8.03125 110.875 7.77083 110.875 7.40625V2.57812H106.703V16.875H110.391C110.745 16.875 110.995 16.9583 111.141 17.125C111.297 17.2812 111.375 17.5521 111.375 17.9375C111.375 18.3229 111.297 18.599 111.141 18.7656C110.995 18.9219 110.745 19 110.391 19H100.672C100.318 19 100.062 18.9219 99.9062 18.7656C99.7604 18.599 99.6875 18.3229 99.6875 17.9375C99.6875 17.5521 99.7604 17.2812 99.9062 17.125C100.062 16.9583 100.318 16.875 100.672 16.875H104.359V2.57812H100.188V7.40625C100.188 7.77083 100.099 8.03125 99.9219 8.1875C99.7448 8.34375 99.4427 8.42188 99.0156 8.42188C98.5885 8.42188 98.2865 8.34375 98.1094 8.1875C97.9323 8.03125 97.8438 7.77083 97.8438 7.40625V1.51562C97.8438 1.13021 97.9167 0.859375 98.0625 0.703125C98.2188 0.536458 98.474 0.453125 98.8281 0.453125H112.234Z" fill="url(#paint0_linear_1_2)" fill-opacity="0.44"/>
<defs>
<linearGradient id="paint0_linear_1_2" x1="58" y1="-6" x2="58" y2="22" gradientUnits="userSpaceOnUse">
<stop offset="0.572917" stop-color="#CC508F"/>
<stop offset="1" stop-color="#CC508F" stop-opacity="0"/>
</linearGradient>
</defs>
</svg>
